<svg width="25" height="24" fill="none" xmlns="http://www.w3.org/2000/svg"><g clip-path="url(#clip0_409_39)" fill="#363636"><path d="M15.53 12.5c-.48 0-1.44.96-3.36.96s-2.88-.96-3.36-.96a.963.963 0 00-.96.96c0 .48.288.72.48.816.576.336 2.4 1.104 2.4 1.104l-2.064 2.592s-.384.432-.384.768c0 .528.432.96.96.96.48 0 .72-.336.72-.336l2.208-2.544 2.16 2.544s.24.336.72.336c.528 0 .96-.432.96-.96 0-.288-.384-.768-.384-.768L13.61 15.38s1.824-.768 2.4-1.104c.192-.144.48-.336.48-.816a.963.963 0 00-.96-.96zm-3.36-7.2a3.34 3.34 0 00-3.36 3.36 3.34 3.34 0 003.36 3.36 3.34 3.34 0 003.36-3.36 3.34 3.34 0 00-3.36-3.36zm0 5.04a1.7 1.7 0 01-1.68-1.68 1.7 1.7 0 011.68-1.68 1.7 1.7 0 011.68 1.68 1.7 1.7 0 01-1.68 1.68z"/></g><rect x=".67" y=".5" width="23" height="23" rx="11.5" stroke="#363636"/><defs><clipPath id="clip0_409_39"><path fill="#fff" transform="translate(7.17 4.5)" d="M0 0h10v16H0z"/></clipPath></defs></svg>