<svg width="25" height="24" fill="none" xmlns="http://www.w3.org/2000/svg"><g clip-path="url(#clip0_109_238)"><path d="M19.01 6.905l-2.142 10.804s-.3.75-1.125.39l-4.945-3.793-1.8-.867-3.028-1.017s-.464-.164-.511-.525c-.047-.361.525-.553.525-.553l12.037-4.72c0-.005.99-.441.99.28z" fill="#363636"/><path opacity=".6" d="M10.414 17.588s-.146-.015-.324-.582c-.178-.567-1.092-3.567-1.092-3.567l7.27-4.617s.422-.253.404 0c0 0 .075.047-.15.253-.225.211-5.71 5.142-5.71 5.142" fill="#E3E3E3"/><path d="M12.692 15.76l-1.955 1.785s-.155.117-.319.042l.376-3.314" fill="#9E9E9E"/></g><rect x=".67" y=".5" width="23" height="23" rx="11.5" stroke="#363636"/><defs><clipPath id="clip0_109_238"><path fill="#fff" transform="translate(5.17 6)" d="M0 0h14v13H0z"/></clipPath></defs></svg>