<svg width="25" height="24" fill="none" xmlns="http://www.w3.org/2000/svg"><g clip-path="url(#clip0_109_232)"><path d="M18.623 15.851c-.48.301-2.437.39-2.91.047a6.36 6.36 0 01-.724-.65c-.157-.157-.337-.233-.472-.404-.11-.14-.186-.304-.303-.441-.197-.232-.5-.428-.74-.146-.36.425.057 1.26-.424 1.577a.783.783 0 01-.525.122l-.447.02c-.262.006-.678.008-.976-.046-.333-.06-.608-.242-.909-.375-.57-.254-1.115-.599-1.53-1.077-1.127-1.303-2.64-3.094-3.229-4.731-.121-.337-.44-1.003-.137-1.292.412-.299 2.434-.384 2.749.08.128.187.209.463.3.676.112.266.173.516.35.752.156.209.271.418.392.647.136.257.264.503.429.74.111.16.407.48.594.504.457.059.428-1.05.394-1.322a5.249 5.249 0 01-.032-.802c.007-.226.028-.544-.106-.728-.218-.3-.703-.076-.741-.48.08-.115.063-.216.598-.393.422-.138.694-.134.972-.112.568.046 1.169-.108 1.716.076.523.176.442.919.424 1.364-.023.608.002 1.202 0 1.818 0 .281-.011.555.33.532.322-.021.355-.292.508-.515.213-.31.409-.626.626-.935.292-.419.38-.89.656-1.318.098-.153.183-.489.335-.61.115-.091.333-.052.472-.052h.33c.253.003.511.006.771.016.374.012.794-.069 1.165-.016 1.602.226-2.013 3.652-1.825 4.263.13.422.955.896 1.252 1.242.397.46 1.613 1.377.667 1.969z" fill="#363636"/></g><rect x=".67" y=".5" width="23" height="23" rx="11.5" stroke="#363636"/><defs><clipPath id="clip0_109_232"><path fill="#fff" transform="translate(5.17 8)" d="M0 0h14v9H0z"/></clipPath></defs></svg>