<svg width="25" height="25" viewBox="0 0 25 25" fill="none" xmlns="http://www.w3.org/2000/svg">
<path d="M4.16665 20.8333C3.59373 20.8333 3.10311 20.6292 2.69477 20.2208C2.28644 19.8125 2.08262 19.3222 2.08331 18.75V6.25001C2.08331 5.67709 2.28748 5.18647 2.69581 4.77813C3.10415 4.3698 3.59443 4.16598 4.16665 4.16667H20.8333C21.4062 4.16667 21.8969 4.37084 22.3052 4.77917C22.7135 5.18751 22.9173 5.67778 22.9167 6.25001V18.75C22.9167 19.3229 22.7125 19.8135 22.3041 20.2219C21.8958 20.6302 21.4055 20.834 20.8333 20.8333H4.16665ZM12.5 13.5417L4.16665 8.33334V18.75H20.8333V8.33334L12.5 13.5417ZM12.5 11.4583L20.8333 6.25001H4.16665L12.5 11.4583ZM4.16665 8.33334V6.25001V18.75V8.33334Z" fill="#676766"/>
</svg>
