<svg width="25" height="24" viewBox="0 0 25 24" fill="none" xmlns="http://www.w3.org/2000/svg">
<g clip-path="url(#clip0_409_39)">
<path d="M15.53 12.5C15.05 12.5 14.09 13.46 12.17 13.46C10.25 13.46 9.28997 12.5 8.80997 12.5C8.28197 12.5 7.84998 12.932 7.84998 13.46C7.84998 13.94 8.13798 14.18 8.32997 14.276C8.90597 14.612 10.73 15.38 10.73 15.38L8.66597 17.972C8.66597 17.972 8.28197 18.404 8.28197 18.74C8.28197 19.268 8.71397 19.7 9.24197 19.7C9.72197 19.7 9.96197 19.364 9.96197 19.364L12.17 16.82L14.33 19.364C14.33 19.364 14.57 19.7 15.05 19.7C15.578 19.7 16.01 19.268 16.01 18.74C16.01 18.452 15.626 17.972 15.626 17.972L13.61 15.38C13.61 15.38 15.434 14.612 16.01 14.276C16.202 14.132 16.49 13.94 16.49 13.46C16.49 12.932 16.058 12.5 15.53 12.5Z" fill="#363636"/>
<path d="M12.1699 5.30029C10.2979 5.30029 8.80994 6.78829 8.80994 8.66029C8.80994 10.5323 10.2979 12.0203 12.1699 12.0203C14.0419 12.0203 15.5299 10.5323 15.5299 8.66029C15.5299 6.78829 14.0419 5.30029 12.1699 5.30029ZM12.1699 10.3403C11.2579 10.3403 10.4899 9.57229 10.4899 8.66029C10.4899 7.74829 11.2579 6.98029 12.1699 6.98029C13.0819 6.98029 13.8499 7.74829 13.8499 8.66029C13.8499 9.57229 13.0819 10.3403 12.1699 10.3403Z" fill="#363636"/>
</g>
<rect x="0.669922" y="0.5" width="23" height="23" rx="11.5" stroke="#363636"/>
<defs>
<clipPath id="clip0_409_39">
<rect width="10" height="16" fill="white" transform="translate(7.16992 4.5)"/>
</clipPath>
</defs>
</svg>
