<svg width="64" height="64" viewBox="0 0 64 64" fill="none" xmlns="http://www.w3.org/2000/svg">
<circle cx="32" cy="32" r="30.5" stroke="white" stroke-width="3"/>
<path d="M42.4375 32.5C42.4381 32.7653 42.3701 33.0262 42.2401 33.2574C42.11 33.4886 41.9223 33.6822 41.6953 33.8193L27.625 42.4268C27.3878 42.572 27.1161 42.6513 26.838 42.6565C26.5599 42.6616 26.2854 42.5924 26.043 42.4561C25.8028 42.3218 25.6028 42.126 25.4634 41.8888C25.3241 41.6516 25.2504 41.3816 25.25 41.1064V23.8936C25.2504 23.6184 25.3241 23.3484 25.4634 23.1112C25.6028 22.874 25.8028 22.6782 26.043 22.5439C26.2854 22.4076 26.5599 22.3384 26.838 22.3435C27.1161 22.3487 27.3878 22.428 27.625 22.5732L41.6953 31.1807C41.9223 31.3178 42.11 31.5114 42.2401 31.7426C42.3701 31.9738 42.4381 32.2347 42.4375 32.5Z" fill="white"/>
</svg>
