<svg width="25" height="24" viewBox="0 0 25 24" fill="none" xmlns="http://www.w3.org/2000/svg">
<g clip-path="url(#clip0_109_238)">
<path d="M19.0106 6.90474L16.8684 17.7094C16.8684 17.7094 16.5684 18.4594 15.7434 18.0985L10.7981 14.3063L8.99809 13.4391L5.96997 12.4219C5.96997 12.4219 5.50591 12.2579 5.45903 11.8969C5.41216 11.536 5.98403 11.3438 5.98403 11.3438L18.0215 6.62349C18.0215 6.6188 19.0106 6.18286 19.0106 6.90474Z" fill="#363636"/>
<path opacity="0.6" d="M10.4137 17.5876C10.4137 17.5876 10.2684 17.5735 10.0902 17.0063C9.91212 16.4392 8.99805 13.4392 8.99805 13.4392L16.2683 8.82197C16.2683 8.82197 16.6902 8.56885 16.6715 8.82197C16.6715 8.82197 16.7465 8.86885 16.5215 9.0751C16.2965 9.28604 10.8121 14.2173 10.8121 14.2173" fill="#E3E3E3"/>
<path d="M12.6919 15.7594L10.7372 17.5453C10.7372 17.5453 10.5825 17.6625 10.4185 17.5875L10.7935 14.2734" fill="#9E9E9E"/>
</g>
<rect x="0.669922" y="0.5" width="23" height="23" rx="11.5" stroke="#363636"/>
<defs>
<clipPath id="clip0_109_238">
<rect width="14" height="13" fill="white" transform="translate(5.16992 6)"/>
</clipPath>
</defs>
</svg>
