<svg width="25" height="24" viewBox="0 0 25 24" fill="none" xmlns="http://www.w3.org/2000/svg">
<g clip-path="url(#clip0_109_232)">
<path d="M18.6233 15.851C18.1424 16.1523 16.1858 16.2419 15.7123 15.8978C15.4525 15.7092 15.215 15.473 14.9893 15.2484C14.8317 15.0912 14.6524 15.0149 14.5169 14.8443C14.4065 14.7046 14.3306 14.54 14.2139 14.4026C14.0173 14.1714 13.7143 13.9748 13.4745 14.2572C13.1139 14.6818 13.5314 15.5166 13.0503 15.834C12.8889 15.9406 12.7262 15.9715 12.5246 15.9562L12.0781 15.9766C11.8157 15.9817 11.4002 15.984 11.1019 15.9302C10.7689 15.8702 10.4942 15.6882 10.1935 15.5546C9.62217 15.3013 9.07765 14.9561 8.6635 14.4778C7.5364 13.1754 6.02238 11.3841 5.43428 9.74652C5.31304 9.41003 4.99387 8.74409 5.29667 8.45537C5.70853 8.15618 7.73073 8.07148 8.0459 8.53454C8.17418 8.72239 8.25488 8.99817 8.34547 9.21114C8.45814 9.47683 8.51943 9.72749 8.69567 9.96273C8.85173 10.1715 8.96707 10.3812 9.08793 10.6102C9.22363 10.867 9.35152 11.1132 9.51654 11.3498C9.62845 11.5106 9.9244 11.8302 10.1113 11.8542C10.5677 11.9126 10.5392 10.8034 10.5053 10.5324C10.4729 10.2714 10.4644 9.99471 10.4729 9.72996C10.4803 9.50424 10.5007 9.18621 10.3669 9.00178C10.149 8.70107 9.66366 8.92623 9.62559 8.52217C9.70591 8.4074 9.68878 8.30558 10.2244 8.12934C10.6459 7.99059 10.9183 7.99497 11.1963 8.01724C11.7635 8.06273 12.3647 7.90914 12.9119 8.09299C13.4346 8.26904 13.3539 9.01187 13.3363 9.45723C13.3129 10.0653 13.3379 10.6586 13.3363 11.2754C13.3356 11.5565 13.3245 11.8296 13.6667 11.807C13.988 11.7855 14.0206 11.5154 14.1738 11.2923C14.3871 10.9815 14.5826 10.6665 14.7997 10.3567C15.0923 9.93818 15.1804 9.46789 15.4558 9.03909C15.5544 8.8855 15.639 8.55034 15.7907 8.4291C15.9057 8.33755 16.1238 8.37676 16.2627 8.37676H16.5931C16.8463 8.37981 17.1044 8.38342 17.3641 8.39256C17.7385 8.4055 18.1578 8.32423 18.5291 8.37657C20.1309 8.60268 16.5159 12.0291 16.7039 12.6404C16.8341 13.0625 17.6586 13.5355 17.9562 13.8815C18.3531 14.3417 19.5694 15.2589 18.6233 15.851Z" fill="#363636"/>
</g>
<rect x="0.669922" y="0.5" width="23" height="23" rx="11.5" stroke="#363636"/>
<defs>
<clipPath id="clip0_109_232">
<rect width="14" height="9" fill="white" transform="translate(5.16992 8)"/>
</clipPath>
</defs>
</svg>
