<svg width="277" height="90" fill="none" xmlns="http://www.w3.org/2000/svg"><g clip-path="url(#clip0_109_8)" fill="#363636"><path d="M163.496 44.658c.186 0 .362-.024.529-.072a1.34 1.34 0 00.439-.21c.125-.09.223-.205.297-.34a.952.952 0 00.11-.465c0-.228-.033-.421-.096-.58a.954.954 0 00-.274-.388c-.121-.1-.266-.17-.435-.213a2.35 2.35 0 00-.57-.064h-.228v2.331h.228v.001zm-1.186-.476v-3.376l-.44-.74h3.693v1.493h-.089l-.809-1.237h-1.399v1.728h.221c.172 0 .351.004.537.011.187.007.372.025.556.053a2.8 2.8 0 01.523.131c.164.06.31.142.438.25.127.105.228.24.301.4.074.162.111.359.111.591 0 .274-.08.504-.238.688a1.822 1.822 0 01-.604.45 3.072 3.072 0 01-.799.24 5.05 5.05 0 01-.825.072h-1.619l.441-.753h.001zm5.685-.263l.066-.05.728.312c.068-.208.124-.442.166-.704.042-.26.074-.537.096-.83.021-.294.036-.6.043-.918.007-.316.012-.632.012-.945l-.588-.717h4.112l-.544.753v3.362l.544.754h-2.163l.662-.754v-3.795h-1.663c0 .445-.002.873-.003 1.286-.003.411-.015.794-.036 1.144-.023.35-.058.663-.107.938a2.563 2.563 0 01-.207.682c-.113.228-.256.382-.43.463-.174.08-.363.12-.569.12l-.119-1.101zm8.196-.824h1.649l-.839-1.948-.81 1.948zm2.23 1.35l-.448-1.03h-1.913l-.397.967.698.555h-1.626l.523-.562 1.87-4.378h.344l1.987 4.464.552.476h-2.266l.677-.49-.001-.002zm4.236-.262v-3.376l-.441-.74h3.509v1.557l-.06.006-.941-1.307h-1.11v3.86l.662.753h-2.163l.544-.753zm7.42-3.903c-.251 0-.451.056-.603.168-.152.11-.271.247-.354.408a1.72 1.72 0 00-.168.512c-.03.18-.044.341-.044.484 0 .365.036.72.111 1.066.072.346.18.653.323.92.142.268.316.483.522.644.206.161.439.242.699.242a.91.91 0 00.559-.168 1.28 1.28 0 00.364-.411 2.201 2.201 0 00.262-.998c0-.366-.039-.721-.113-1.067a3.6 3.6 0 00-.329-.917 1.997 1.997 0 00-.526-.64 1.117 1.117 0 00-.702-.242h-.001zm2.699 2.004c0 .356-.058.7-.176 1.032a2.567 2.567 0 01-.519.873 2.505 2.505 0 01-.852.605c-.341.15-.739.227-1.189.227-.339 0-.643-.066-.913-.199a2.156 2.156 0 01-.684-.522 2.345 2.345 0 01-.43-.739 2.49 2.49 0 01-.151-.85c0-.356.059-.698.176-1.03.118-.332.292-.624.519-.874a2.53 2.53 0 01.857-.604 2.91 2.91 0 011.185-.228 2.056 2.056 0 011.598.722c.186.216.33.461.43.739.1.277.15.56.15.85l-.001-.002zm2.11-2.217h4.436v1.556l-.059.008-.948-1.315h-.735v3.866l.544.753h-2.046l.544-.753v-3.86h-.736l-.941 1.308-.059-.007v-1.556zm8.298 4.592c.188 0 .364-.023.53-.068.166-.045.313-.111.439-.198a.909.909 0 00.407-.778 1.27 1.27 0 00-.117-.583.908.908 0 00-.332-.363 1.4 1.4 0 00-.509-.188 3.577 3.577 0 00-.647-.054v2.233h.229v-.001zm-.228-2.41c.237 0 .443-.025.618-.074.177-.05.325-.118.442-.203a.844.844 0 00.265-.305.849.849 0 00.088-.384c0-.214-.036-.385-.11-.515a.796.796 0 00-.28-.299 1.08 1.08 0 00-.376-.138 2.298 2.298 0 00-.397-.036h-.25v1.954zm.288-2.181c.308 0 .59.016.846.049.255.033.473.09.654.17.182.081.323.19.423.328a.865.865 0 01.151.525.81.81 0 01-.108.423c-.07.12-.159.227-.271.32-.11.092-.234.17-.372.235a6.45 6.45 0 01-.411.174c.461.1.825.256 1.088.473.265.215.398.506.398.87a.89.89 0 01-.239.636 1.65 1.65 0 01-.603.398c-.243.098-.51.166-.798.207-.289.04-.565.06-.825.06h-1.619l.441-.752v-3.377l-.441-.739h1.686zm6.776.212c-.25 0-.452.056-.603.168a1.13 1.13 0 00-.353.408c-.083.161-.14.331-.171.512a3.07 3.07 0 00-.043.484c0 .365.036.72.11 1.066.074.346.182.653.324.92.141.268.317.483.522.644.207.161.44.242.699.242a.916.916 0 00.56-.168c.151-.111.273-.249.363-.411.092-.165.157-.336.199-.516.042-.18.063-.34.063-.483 0-.365-.039-.72-.115-1.066a3.526 3.526 0 00-.328-.917 1.984 1.984 0 00-.526-.64 1.117 1.117 0 00-.702-.242h.001zm2.699 2.004c0 .356-.059.7-.176 1.032a2.567 2.567 0 01-.519.873 2.5 2.5 0 01-.853.605c-.341.15-.737.227-1.187.227-.339 0-.643-.066-.913-.199a2.16 2.16 0 01-.685-.522 2.345 2.345 0 01-.43-.739 2.49 2.49 0 01-.151-.85c0-.356.06-.698.177-1.03.117-.332.292-.624.518-.874a2.54 2.54 0 01.857-.604 2.893 2.893 0 011.184-.228 2.053 2.053 0 011.597.722c.187.216.332.461.43.739.101.277.15.56.15.85l.001-.002zm3.543.349c.402 0 .713-.096.936-.288.219-.192.33-.49.33-.892s-.111-.699-.335-.889c-.224-.19-.534-.283-.931-.283v2.353-.001zm-.957 1.55V40.82l-.544-.754h1.765c.12 0 .251.004.399.014.148.01.297.03.449.061.151.031.3.075.446.132.144.056.272.134.382.23a1.108 1.108 0 01.371.864c0 .218-.048.414-.147.583a1.5 1.5 0 01-.379.437 1.964 1.964 0 01-.527.292c-.195.073-.39.122-.581.145a5.1 5.1 0 01-.677.051v1.308l.663.753h-2.164l.544-.753zm5.722 0v-3.37l-.538-.745h2.046l-.551.753v3.262l2.375-4.015h1.4l-.552.753v3.362l.544.753h-2.046l.545-.753V40.92l-2.377 4.016h-1.389l.543-.753zm6.887-4.116h4.437v1.556l-.058.008-.949-1.315h-.736v3.866l.544.753h-2.045l.545-.753v-3.86h-.736l-.943 1.308-.059-.007v-1.556zm10.358 4.869h-3.686l.44-.752v-3.377l-.44-.74h3.546v1.493h-.089l-.809-1.237h-1.25v1.97h2.008v.319h-2.008v2.068h1.317l.971-1.3.08.013-.08 1.543zm2.153-1.016l.066-.05.728.312c.069-.208.124-.443.167-.704.041-.26.072-.538.095-.83.023-.294.036-.6.043-.918.008-.316.012-.632.012-.946l-.588-.716h4.113l-.546.753v3.362l.546.753h-2.164l.662-.753v-3.796h-1.662c0 .446-.003.874-.004 1.286a21.9 21.9 0 01-.036 1.145c-.024.35-.059.663-.107.938a2.67 2.67 0 01-.206.682c-.114.227-.257.382-.432.462-.174.081-.363.12-.569.12l-.118-1.1zm8.558.738c.186 0 .363-.025.53-.078.166-.052.313-.127.438-.224.126-.098.225-.218.297-.359.075-.142.111-.303.111-.484 0-.227-.035-.42-.102-.575a.983.983 0 00-.287-.38 1.133 1.133 0 00-.439-.21 2.242 2.242 0 00-.548-.063h-.228v2.373h.228zm-1.185-.476v-3.369l-.536-.747h2.044l-.551.754v1.187h.221c.157 0 .328.006.511.018a3.39 3.39 0 011.074.242c.171.069.318.16.449.276.131.116.235.257.314.423.078.166.116.362.116.59 0 .28-.079.508-.238.686a1.686 1.686 0 01-.603.422 3.013 3.013 0 01-.799.214 6.297 6.297 0 01-.824.056h-1.619l.441-.752zm10.71.754h-2.045l.545-.753v-1.615h-2.216v1.615l.545.753h-2.045l.545-.753v-3.37l-.537-.746h2.045l-.553.753v1.43h2.216v-1.436l-.539-.747h2.047l-.551.753v3.363l.543.753zm6.696 0l.544-.752V40.82l-.544-.753h2.046l-.546.753v3.363l.546.752h-2.046zm-2.766-.276c.186 0 .363-.026.53-.078a1.35 1.35 0 00.437-.224 1.035 1.035 0 00.408-.843c0-.228-.034-.42-.102-.576a.964.964 0 00-.287-.38 1.134 1.134 0 00-.439-.21 2.25 2.25 0 00-.547-.063h-.229v2.374h.229zm-1.185-.476v-3.37l-.536-.746h2.045l-.552.753v1.187h.221c.157 0 .327.006.511.018a3.346 3.346 0 011.074.242c.169.069.318.16.448.276.131.117.234.258.314.424.078.165.117.362.117.59 0 .28-.079.508-.238.685a1.684 1.684 0 01-.605.422 2.998 2.998 0 01-.797.214 6.297 6.297 0 01-.824.057h-1.619l.441-.753zm10.903-4.473c-.461 0-.816-.087-1.063-.26-.248-.172-.372-.43-.372-.77h.846c0 .251.051.44.154.569a.529.529 0 00.435.19c.187 0 .33-.063.434-.19.103-.129.155-.318.155-.57h.845c0 .341-.122.599-.37.771-.248.173-.603.26-1.064.26zm-2.163 4.471v-3.368l-.538-.747h2.047l-.553.753v3.263l2.377-4.016h1.399l-.552.753v3.363l.545.754h-2.047l.546-.754v-3.262l-2.377 4.016h-1.389l.544-.754h-.002zM165.274 54.916a.848.848 0 00.376.078c.25 0 .449-.061.594-.186a1.25 1.25 0 00.343-.437c.082-.167.134-.339.158-.512.025-.172.037-.306.037-.4 0-.512-.119-.9-.359-1.163-.241-.263-.624-.393-1.149-.393v3.013zm-.926-2.95a.848.848 0 00-.376-.08c-.25 0-.449.064-.594.186a1.273 1.273 0 00-.343.438 1.707 1.707 0 00-.158.512 2.978 2.978 0 00-.037.4c0 .512.12.9.36 1.163s.623.394 1.148.394v-3.013zm0 3.37v-.087a1.71 1.71 0 01-.177.022c-.063.005-.13.007-.199.007-.338 0-.642-.054-.912-.16a2.246 2.246 0 01-.684-.413 1.826 1.826 0 01-.43-.568 1.46 1.46 0 01-.15-.636c0-.261.048-.508.146-.74.098-.232.244-.436.439-.61a2.1 2.1 0 01.73-.416 3.133 3.133 0 011.031-.152h.106c.033 0 .065.002.1.006v-.044l-.544-.753h2.015l-.545.753v.087a2.045 2.045 0 01.376-.03c.338 0 .643.054.912.16.27.106.498.245.685.412.186.169.329.359.431.57.1.21.15.422.15.635 0 .261-.048.508-.144.74a1.657 1.657 0 01-.437.61 2.112 2.112 0 01-.736.415 3.127 3.127 0 01-1.031.154h-.106a.733.733 0 01-.1-.007v.043l.545.753h-2.015l.544-.753v.001zm7.873-4.116c-.249 0-.451.056-.603.168-.152.11-.27.247-.354.408a1.736 1.736 0 00-.168.512c-.03.18-.044.341-.044.484 0 .364.036.72.111 1.066.072.346.181.652.323.92.142.267.316.482.523.643.205.16.439.241.698.241a.909.909 0 00.559-.167 1.27 1.27 0 00.364-.412 2.203 2.203 0 00.262-.998c0-.365-.038-.72-.113-1.066a3.569 3.569 0 00-.329-.918 1.97 1.97 0 00-.526-.64 1.116 1.116 0 00-.701-.24h-.002zm2.7 2.005c0 .355-.059.698-.176 1.03a2.58 2.58 0 01-.518.874c-.23.251-.513.453-.854.604a2.912 2.912 0 01-1.189.228 2.04 2.04 0 01-.911-.199 2.13 2.13 0 01-.686-.522 2.47 2.47 0 01-.58-1.59c0-.354.06-.697.176-1.03.118-.331.292-.622.519-.874.23-.25.514-.452.858-.603a2.911 2.911 0 011.185-.227 2.052 2.052 0 011.597.72c.186.216.33.462.429.74.101.276.15.56.15.85v-.001zm7.218 2.651h-2.044l.544-.753V53.51h-2.215v1.614l.545.753h-2.046l.545-.753v-3.369l-.539-.746h2.048l-.553.752v1.43h2.215v-1.436l-.537-.746h2.045l-.552.752v3.363l.544.753zm5.326-.32v-4.23h-1.662c0 .593-.011 1.119-.03 1.578-.02.46-.052.862-.097 1.205a6.656 6.656 0 01-.162.87 2.26 2.26 0 01-.227.577h2.178zm-3.237 1.62v-1.62h.714c.187-.313.316-.792.389-1.436.075-.645.111-1.443.111-2.395l-.588-.719h4.112l-.544.754v3.796h.735v1.62l-.059.007-.942-1.307h-2.927l-.943 1.307-.059-.007h.001zm-174.169-34H5.818c-.066 0-.111-.042-.066-.147l1.953-5.683c.044-.147.112-.232.156-.232.066 0 .11.063.178.232l2.11 5.683c.022.084.022.147-.09.147zm6.64 6.672c-.222 0-.555-.02-.888-.126-.466-.127-1.11-.463-1.91-2.336-1.355-3.2-4.841-11.892-5.174-12.692-.266-.651-.356-.757-.489-.757s-.222.126-.488.82l-5.04 13.07c-.4 1.054-.844 1.854-1.866 1.98a6.884 6.884 0 01-.644.042c-.11 0-.2.042-.2.127 0 .126.133.168.423.168 1.044 0 2.265-.063 2.51-.063.243 0 1.197.063 1.73.063.2 0 .334-.042.334-.168 0-.085-.066-.127-.222-.127h-.222c-.378 0-.844-.189-.844-.61 0-.38.11-.884.31-1.411l1.333-3.725c.044-.105.111-.17.222-.17h4.774c.112 0 .156.043.2.128l2.066 5.176c.044.085.044.21.044.274 0 .189-.133.295-.178.295-.067 0-.155.063-.155.147 0 .127.244.127.665.148 1.533.042 3.154.042 3.487.042.244 0 .444-.042.444-.168 0-.105-.089-.127-.222-.127zM32.89 14.946c-1.021 0-2.309.063-2.798.063-.177 0-1.51-.063-2.509-.063-.244 0-.354.042-.354.169 0 .084.088.126.177.126.199 0 .577.021.755.063.732.147.91.484.954 1.2.044.672.044 1.262.044 4.546v3.704c0 2.02 0 3.683-.11 4.567-.09.61-.2 1.074-.644 1.158a3.53 3.53 0 01-.667.085c-.133 0-.177.063-.177.126 0 .126.112.167.355.167.667 0 2.066-.063 2.133-.063.11 0 1.51.063 2.732.063.244 0 .355-.063.355-.167 0-.064-.044-.126-.179-.126-.199 0-.688-.043-1-.085-.665-.084-.798-.547-.865-1.158-.111-.883-.111-2.547-.111-4.567v-8.65c0-.21.044-.358.177-.4.2-.084.577-.127.954-.127.512 0 1.866-.083 3.043 1.054 1.177 1.136 1.243 2.547 1.243 3.24 0 1.937-1.688 3.432-3.842 3.432-.465 0-.6.02-.6.189 0 .105.135.147.246.147.11.02.354.02.467.02 3.152 0 5.463-2.02 5.463-5.008 0-1.115-.622-2.063-1.11-2.505-.356-.316-1.356-1.2-4.13-1.2h-.002zm32.331 14.902a3.76 3.76 0 01-.777-.126c-.644-.19-.954-.506-1.31-.948-.467-.568-4.264-6.693-4.686-7.345l3.576-5.093c.643-.905 1.066-1.516 1.71-1.706.244-.083.577-.104.732-.104.155 0 .244-.064.244-.148 0-.084-.111-.148-.354-.148-.756 0-1.666.063-1.866.063-.2 0-1.132-.063-1.976-.063-.266 0-.378.063-.378.148 0 .105.066.148.2.148.133 0 .444 0 .665.063.223.063.379.232.379.378 0 .253-.068.443-.223.758-.221.442-2.598 4.04-3.264 4.946a97.819 97.819 0 01-2.998-5.03c-.133-.231-.222-.485-.222-.694 0-.149.066-.295.266-.36.179-.062.467-.062.6-.062.133 0 .199-.042.199-.148 0-.105-.066-.148-.378-.148-.755 0-1.887.063-2.087.063-.177 0-1.977-.063-2.598-.063-.288 0-.377.043-.377.148 0 .084.066.148.199.148s.578.042.933.147c.754.253 1.221.862 1.731 1.684l3.553 5.661-4.019 6.02c-.733 1.074-1.177 1.537-1.844 1.705a3.665 3.665 0 01-.844.105c-.111 0-.177.063-.177.147 0 .084.044.148.222.148.733 0 1.82-.064 2.02-.064.2 0 1.6.064 2.133.064.155 0 .266-.042.266-.148 0-.083-.067-.147-.177-.147-.112 0-.289-.02-.423-.042-.2-.043-.355-.19-.355-.4 0-.211.09-.59.289-.927l3.463-5.577c1.333 2.126 2.621 4.21 3.82 6.271.2.337 0 .548-.112.59a.162.162 0 00-.133.169c0 .105.111.126.689.169 1.133.021 2.199.042 3.553.042.2 0 .311-.064.311-.168 0-.085-.066-.127-.177-.127h.002zm29.248-.001c-.2 0-.688-.042-1-.085-.665-.084-.798-.547-.865-1.157-.11-.884-.11-2.548-.11-4.568v-9.513c.11-.694-.245-.779-.534-.337-4.552 5.578-7.66 9.092-10.814 12.565-.09.105-.2.085-.2-.083 0-6.947 0-10.209.045-10.882.043-.737.22-1.095.82-1.2.266-.041.401-.063.556-.063.088 0 .178-.042.178-.127 0-.126-.11-.169-.355-.169-.666 0-2.066.063-2.176.063-.112 0-1.51-.063-2.51-.063-.244 0-.354.043-.354.17 0 .084.088.126.177.126.2 0 .577.022.755.063.733.148.911.485.954 1.2.046.673 0 1.263.046 4.546v9.681c-.112.695.245.779.533.337l.267-.337 1.842-2.252c2.754-3.41 5.664-6.714 8.594-9.955.2-.231.311-.105.311.148v6.082c0 2.02 0 3.683-.11 4.568-.09.61-.2 1.073-.645 1.157a3.6 3.6 0 01-.666.085c-.133 0-.178.063-.178.127 0 .126.111.168.355.168.666 0 2.065-.064 2.176-.064.113 0 1.511.064 2.732.064.244 0 .355-.064.355-.168 0-.063-.044-.127-.177-.127h-.002zm28.092-3.515c-.133 0-.178.084-.222.316-.066.378-.355 1.305-.822 1.768-.887.862-2.198 1.051-3.863 1.051-4.752 0-8.017-3.682-8.017-7.703 0-3.724 1.399-7.03 7.107-7.03 2.774 0 5.373.885 5.373 3.347 0 .294.022.442.179.442.176 0 .22-.316.22-1.325 0-1.221.157-2.232.157-2.463 0-.127-.045-.232-.289-.232-.844 0-2.842-.568-5.484-.568-7.062 0-9.261 4.63-9.261 7.998 0 4.861 3.242 8.502 10.015 8.502 1.422 0 3.11-.147 3.997-.484.401-.168.445-.21.577-.61.223-.715.489-2.547.489-2.693 0-.17-.043-.316-.155-.316h-.001zm44.103-12.102c-1.022 0-2.309.063-2.798.063-.178 0-1.51-.063-2.51-.063-.245 0-.354.043-.354.17 0 .083.088.125.178.125.199 0 .576.022.754.063.733.148.911.485.954 1.2.046.674.046 1.263.046 4.546v3.704c0 2.02 0 3.683-.112 4.568-.09.61-.199 1.073-.643 1.157-.2.042-.466.084-.667.084-.133 0-.178.063-.178.126 0 .127.111.168.356.168.666 0 2.064-.063 2.132-.063.112 0 1.509.063 2.732.063.244 0 .354-.063.354-.168 0-.063-.043-.126-.178-.126-.199 0-.688-.042-.999-.084-.666-.084-.799-.547-.867-1.157-.11-.884-.11-2.548-.11-4.568v-8.65c0-.21.044-.359.178-.4.2-.084.577-.127.954-.127.512 0 1.866-.084 3.044 1.053 1.176 1.137 1.243 2.547 1.243 3.242 0 1.936-1.688 3.43-3.841 3.43-.466 0-.601.021-.601.19 0 .105.134.147.245.147.112.021.356.021.467.021 3.153 0 5.462-2.02 5.462-5.01 0-1.114-.622-2.063-1.11-2.504-.355-.315-1.354-1.2-4.129-1.2h-.002zm25.804 8.945h-4.241c-.066 0-.111-.042-.066-.148l1.954-5.683c.043-.146.11-.23.155-.23.066 0 .112.062.179.23l2.108 5.683c.022.085.022.148-.089.148zm6.641 6.672c-.223 0-.555-.02-.889-.126-.466-.127-1.11-.463-1.91-2.337-1.354-3.199-4.841-11.891-5.174-12.691-.265-.652-.355-.758-.488-.758s-.222.126-.488.821l-5.041 13.07c-.4 1.053-.843 1.853-1.864 1.98a6.959 6.959 0 01-.644.042c-.11 0-.2.042-.2.126 0 .126.133.169.422.169 1.043 0 2.265-.063 2.509-.063.245 0 1.199.063 1.732.063.199 0 .333-.043.333-.169 0-.084-.065-.126-.221-.126h-.222c-.378 0-.845-.19-.845-.611 0-.379.111-.884.311-1.41l1.333-3.726c.044-.105.111-.168.221-.168h4.776c.11 0 .155.042.2.126l2.064 5.177a.63.63 0 01.045.273c0 .19-.134.296-.178.296-.066 0-.155.063-.155.147 0 .127.245.127.666.148 1.532.042 3.154.042 3.487.042.244 0 .443-.042.443-.168 0-.106-.088-.127-.221-.127h-.002zm23.74-15.764c-.178 0-.778.21-2.199.21h-8.327c-.267 0-1.111-.042-1.756-.105-.599-.043-.82-.253-.976-.253-.089 0-.178.274-.221.4-.045.169-.489 1.978-.489 2.189 0 .127.045.189.11.189.09 0 .156-.043.222-.21.068-.148.135-.295.378-.652.355-.506.889-.653 2.265-.674l3.288-.042v8.903c0 2.02-.001 3.683-.113 4.567-.089.611-.198 1.074-.644 1.158a3.574 3.574 0 01-.665.084c-.134 0-.178.063-.178.127 0 .126.11.167.354.167.667 0 2.066-.063 2.178-.063.11 0 1.51.063 2.73.063.245 0 .356-.063.356-.167 0-.064-.045-.127-.179-.127-.199 0-.687-.042-.999-.084-.666-.084-.798-.547-.865-1.158-.111-.883-.111-2.547-.111-4.567v-8.903l2.799.042c2.132.042 2.642.526 2.731 1.158l.021.232c.023.294.066.357.179.357.088 0 .155-.084.155-.273 0-.232.066-1.684.066-2.315 0-.127 0-.253-.11-.253zm29.935 15.764c-.201 0-.689-.042-1-.085-.665-.084-.798-.547-.866-1.157-.11-.884-.11-2.548-.11-4.568v-9.513c.11-.694-.245-.779-.534-.337-4.552 5.578-7.661 9.092-10.815 12.565-.089.105-.199.085-.199-.083 0-6.947 0-10.209.044-10.882.044-.737.222-1.095.822-1.2.265-.041.4-.063.555-.063.089 0 .178-.042.178-.127 0-.126-.111-.169-.355-.169-.667 0-2.066.063-2.176.063-.112 0-1.511-.063-2.509-.063-.245 0-.354.043-.354.17 0 .084.088.126.178.126.198 0 .576.022.754.063.733.148.911.485.954 1.2.044.673 0 1.263.044 4.546v9.681c-.111.695.245.779.534.337l.266-.337 1.843-2.252c2.753-3.41 5.664-6.714 8.594-9.955.2-.231.311-.105.311.148v6.082c0 2.02 0 3.683-.111 4.568-.088.61-.199 1.073-.644 1.157a3.53 3.53 0 01-.666.085c-.133 0-.179.063-.179.127 0 .126.113.168.356.168.666 0 2.065-.064 2.176-.064.113 0 1.51.064 2.732.064.245 0 .355-.064.355-.168 0-.063-.044-.127-.177-.127h-.001zm23.384-15.807c-.088 0-.178.085-.311.127-.088.021-.622.063-.977.084-.311.021-5.018.043-5.463.043-.111 0-1.51-.064-2.509-.064-.245 0-.354.042-.354.169 0 .084.088.126.177.126.199 0 .577.021.755.064.732.147.865.463.933.968.043.357.066 1.241.066 4.777v3.704c0 2.567-.044 4.272-.156 4.82-.132.61-.244.8-.598.904a2.428 2.428 0 01-.668.084c-.132 0-.176.064-.176.127 0 .127.11.167.354.167.667 0 1.978-.063 2.088-.063.111 0 1.511.063 2.732.063.243 0 .356-.063.356-.167 0-.063-.045-.127-.179-.127a10.4 10.4 0 01-.999-.084c-.488-.063-.756-.358-.845-.947-.111-.694-.132-2.757-.132-4.778v-8.735c0-.167.065-.23.199-.23l3.043.063c1.31 0 1.843.42 1.975.694.135.275.201.632.201.8 0 .148.043.232.155.232.111 0 .155-.105.176-.21.046-.253.09-1.18.111-1.39.067-.59.179-.842.179-.989 0-.105-.044-.231-.133-.231zm-133.303-2.116V0h-2.042v11.924h2.042zm9.085 3.443v-1.123l-20.215.01v1.113h20.215zm-9.128 2.041l-.542 67.99c0 .249-.242 3.367-.435 3.367-.195 0-.412-3.118-.412-3.367l-.567-67.99h-1.05l.717 68.894c0 1.006.321 3.698 1.31 3.698.991 0 1.311-2.692 1.311-3.698l.717-68.894h-1.049z"/></g><defs><clipPath id="clip0_109_8"><path fill="#fff" d="M0 0h277v90H0z"/></clipPath></defs></svg>