<svg width="277" height="90" viewBox="0 0 277 90" fill="none" xmlns="http://www.w3.org/2000/svg">
<g clip-path="url(#clip0_109_8)">
<path d="M163.496 44.6582C163.682 44.6582 163.858 44.6343 164.025 44.5865C164.191 44.5394 164.339 44.4701 164.464 44.3768C164.589 44.2851 164.687 44.171 164.761 44.0362C164.835 43.9015 164.871 43.746 164.871 43.5705C164.871 43.3425 164.838 43.1495 164.775 42.9917C164.712 42.833 164.621 42.7038 164.501 42.6033C164.38 42.5036 164.235 42.4335 164.066 42.3896C163.898 42.3474 163.707 42.3258 163.496 42.3258H163.268V44.6574H163.496L163.496 44.6582ZM162.31 44.1822V40.806L161.87 40.0668H165.563V41.5595H165.474L164.665 40.322H163.266V42.0499H163.487C163.659 42.0499 163.838 42.0539 164.024 42.0611C164.211 42.0675 164.396 42.0858 164.58 42.1137C164.765 42.1424 164.937 42.1863 165.103 42.2453C165.267 42.3051 165.413 42.3873 165.541 42.4941C165.668 42.6002 165.769 42.7349 165.842 42.8952C165.916 43.0571 165.953 43.254 165.953 43.486C165.953 43.7595 165.873 43.99 165.715 44.1742C165.553 44.3592 165.354 44.5083 165.111 44.6231C164.867 44.7364 164.602 44.8169 164.312 44.8648C164.023 44.9118 163.747 44.9357 163.487 44.9357H161.868L162.309 44.183L162.31 44.1822Z" fill="#363636"/>
<path d="M167.995 43.919L168.061 43.8688L168.789 44.1814C168.857 43.9732 168.913 43.7388 168.955 43.4772C168.997 43.2165 169.029 42.9398 169.051 42.6464C169.072 42.3529 169.087 42.0467 169.094 41.7293C169.101 41.4128 169.106 41.097 169.106 40.7836L168.518 40.0668H172.63L172.086 40.8203V44.1822L172.63 44.9357H170.467L171.129 44.1822V40.3866H169.466C169.466 40.8323 169.464 41.2605 169.463 41.6727C169.46 42.0842 169.448 42.467 169.427 42.817C169.404 43.1679 169.369 43.4805 169.32 43.7548C169.271 44.0299 169.202 44.2579 169.113 44.4374C169 44.6646 168.857 44.8193 168.683 44.8999C168.509 44.9804 168.32 45.0203 168.114 45.0203L167.995 43.919Z" fill="#363636"/>
<path d="M176.191 43.0947H177.84L177.001 41.1474L176.191 43.0947ZM178.421 44.4454L177.973 43.4144H176.06L175.663 44.3817L176.361 44.9366H174.735L175.258 44.3753L177.128 39.9968H177.472L179.459 44.4606L180.011 44.9374H177.745L178.422 44.4471L178.421 44.4454Z" fill="#363636"/>
<path d="M182.657 44.1829V40.8067L182.216 40.0675H185.725V41.624L185.665 41.6304L184.724 40.3227H183.614V44.1829L184.276 44.9356H182.113L182.657 44.1829Z" fill="#363636"/>
<path d="M190.077 40.2805C189.826 40.2805 189.626 40.3364 189.474 40.448C189.322 40.558 189.203 40.6952 189.12 40.8563C189.038 41.0174 188.981 41.1872 188.952 41.3682C188.922 41.5484 188.908 41.7094 188.908 41.8522C188.908 42.2166 188.944 42.5722 189.019 42.9183C189.091 43.2636 189.199 43.5706 189.342 43.8385C189.484 44.1057 189.658 44.321 189.864 44.482C190.07 44.6431 190.303 44.7237 190.563 44.7237C190.784 44.7237 190.971 44.6686 191.122 44.5562C191.273 44.4445 191.396 44.3074 191.486 44.1447C191.577 43.9797 191.642 43.809 191.685 43.6288C191.726 43.4494 191.748 43.2883 191.748 43.1464C191.748 42.7811 191.709 42.4255 191.635 42.0795C191.558 41.7342 191.448 41.428 191.306 41.1625C191.164 40.8977 190.987 40.6848 190.78 40.5229C190.572 40.3618 190.338 40.2813 190.078 40.2813L190.077 40.2805ZM192.776 42.2844C192.776 42.64 192.718 42.9845 192.6 43.3162C192.482 43.6472 192.309 43.9382 192.081 44.1894C191.853 44.4406 191.57 44.6423 191.229 44.7938C190.888 44.9445 190.49 45.0211 190.04 45.0211C189.701 45.0211 189.397 44.9549 189.127 44.8225C188.858 44.6901 188.63 44.5155 188.443 44.3002C188.256 44.0841 188.114 43.8377 188.013 43.561C187.913 43.2835 187.862 43.0004 187.862 42.711C187.862 42.3553 187.921 42.0133 188.038 41.6808C188.156 41.349 188.33 41.0572 188.557 40.8068C188.785 40.5565 189.071 40.3547 189.414 40.2032C189.758 40.0509 190.154 39.9751 190.599 39.9751C190.938 39.9751 191.242 40.0421 191.512 40.1737C191.781 40.3068 192.01 40.4815 192.197 40.6968C192.383 40.9129 192.527 41.1585 192.627 41.436C192.727 41.7127 192.777 41.9965 192.777 42.2852L192.776 42.2844Z" fill="#363636"/>
<path d="M194.886 40.0668H199.322V41.6233L199.263 41.6305L198.315 40.3156H197.58V44.1822L198.124 44.935H196.078L196.622 44.1822V40.322H195.886L194.945 41.6305L194.886 41.6233V40.0668Z" fill="#363636"/>
<path d="M203.184 44.6589C203.372 44.6589 203.548 44.6365 203.714 44.5911C203.88 44.5457 204.027 44.4795 204.153 44.3926C204.277 44.3049 204.377 44.1956 204.45 44.0656C204.523 43.9349 204.56 43.7849 204.56 43.6143C204.56 43.3783 204.521 43.1829 204.443 43.0322C204.365 42.8799 204.254 42.7587 204.111 42.6694C203.97 42.5793 203.8 42.5171 203.602 42.4812C203.408 42.4453 203.191 42.427 202.955 42.427V44.6597H203.184L203.184 44.6589ZM202.956 42.2492C203.193 42.2492 203.399 42.2245 203.574 42.175C203.751 42.1248 203.899 42.057 204.016 41.9716C204.133 41.8863 204.222 41.7851 204.281 41.667C204.34 41.5483 204.369 41.4207 204.369 41.2835C204.369 41.069 204.333 40.8984 204.259 40.7676C204.186 40.6368 204.092 40.5387 203.979 40.4693C203.866 40.4008 203.742 40.3554 203.603 40.3306C203.467 40.3067 203.334 40.2948 203.206 40.2948H202.956V42.2492ZM203.244 40.0675C203.552 40.0675 203.834 40.0842 204.09 40.1169C204.345 40.1504 204.563 40.2078 204.744 40.2867C204.926 40.3681 205.067 40.4774 205.167 40.6145C205.268 40.7524 205.318 40.9271 205.318 41.14C205.318 41.3003 205.282 41.4422 205.21 41.5626C205.14 41.6838 205.051 41.7899 204.939 41.8823C204.829 41.9749 204.705 42.053 204.567 42.1176C204.431 42.1814 204.292 42.2396 204.156 42.2922C204.617 42.3911 204.981 42.5482 205.244 42.7651C205.509 42.9804 205.642 43.2707 205.642 43.635C205.642 43.891 205.562 44.1031 205.403 44.2713C205.244 44.4404 205.042 44.572 204.8 44.6692C204.557 44.7666 204.29 44.8351 204.002 44.8758C203.713 44.9157 203.437 44.9364 203.177 44.9364H201.558L201.999 44.1837V40.8075L201.558 40.0683H203.244V40.0675Z" fill="#363636"/>
<path d="M210.02 40.2805C209.77 40.2805 209.568 40.3364 209.417 40.448C209.264 40.558 209.146 40.6952 209.064 40.8563C208.981 41.0174 208.924 41.1872 208.893 41.3682C208.864 41.5484 208.85 41.7094 208.85 41.8522C208.85 42.2166 208.886 42.5722 208.96 42.9183C209.034 43.2636 209.142 43.5706 209.284 43.8385C209.425 44.1057 209.601 44.321 209.806 44.482C210.013 44.6431 210.246 44.7237 210.505 44.7237C210.726 44.7237 210.913 44.6686 211.065 44.5562C211.216 44.4445 211.338 44.3074 211.428 44.1447C211.52 43.9797 211.585 43.809 211.627 43.6288C211.669 43.4494 211.69 43.2883 211.69 43.1464C211.69 42.7811 211.651 42.4255 211.575 42.0795C211.499 41.7342 211.39 41.428 211.247 41.1625C211.105 40.8977 210.929 40.6848 210.721 40.5229C210.513 40.3618 210.279 40.2813 210.019 40.2813L210.02 40.2805ZM212.719 42.2844C212.719 42.64 212.66 42.9845 212.543 43.3162C212.425 43.6472 212.252 43.9382 212.024 44.1894C211.796 44.4406 211.513 44.6423 211.171 44.7938C210.83 44.9445 210.434 45.0211 209.984 45.0211C209.645 45.0211 209.341 44.9549 209.071 44.8225C208.802 44.6901 208.573 44.5155 208.386 44.3002C208.199 44.0841 208.057 43.8377 207.956 43.561C207.856 43.2835 207.805 43.0004 207.805 42.711C207.805 42.3553 207.865 42.0133 207.982 41.6808C208.099 41.349 208.274 41.0572 208.5 40.8068C208.729 40.5565 209.014 40.3547 209.357 40.2032C209.7 40.0509 210.095 39.9751 210.541 39.9751C210.881 39.9751 211.184 40.0421 211.454 40.1737C211.724 40.3068 211.952 40.4815 212.138 40.6968C212.325 40.9129 212.47 41.1585 212.568 41.436C212.669 41.7127 212.718 41.9965 212.718 42.2852L212.719 42.2844Z" fill="#363636"/>
<path d="M216.262 42.6329C216.664 42.6329 216.975 42.5372 217.198 42.3451C217.417 42.1529 217.528 41.8555 217.528 41.4528C217.528 41.0509 217.417 40.7543 217.193 40.5645C216.969 40.3747 216.659 40.2806 216.262 40.2806V42.6337V42.6329ZM215.305 44.1823V40.8196L214.761 40.0661H216.526C216.646 40.0661 216.777 40.0701 216.925 40.0804C217.073 40.09 217.222 40.1108 217.374 40.1411C217.525 40.1721 217.674 40.216 217.82 40.2726C217.964 40.3293 218.092 40.4066 218.202 40.5039C218.312 40.6012 218.401 40.72 218.469 40.8627C218.539 41.0046 218.573 41.1737 218.573 41.3674C218.573 41.5851 218.525 41.7805 218.426 41.9503C218.327 42.121 218.202 42.2661 218.047 42.3873C217.892 42.5085 217.718 42.605 217.52 42.6792C217.325 42.7525 217.13 42.8012 216.939 42.8243C216.821 42.8442 216.7 42.857 216.576 42.8634C216.451 42.8714 216.345 42.8754 216.262 42.8754V44.1831L216.925 44.9358H214.761L215.305 44.1831V44.1823Z" fill="#363636"/>
<path d="M221.027 44.1829V40.8139L220.489 40.0675H222.535L221.984 40.821V44.0832L224.359 40.0675H225.759L225.207 40.821V44.1829L225.751 44.9356H223.705L224.25 44.1829V40.9199L221.873 44.9356H220.484L221.027 44.1829Z" fill="#363636"/>
<path d="M227.914 40.0668H232.351V41.6233L232.293 41.6305L231.344 40.3156H230.608V44.1822L231.152 44.935H229.107L229.652 44.1822V40.322H228.916L227.973 41.6305L227.914 41.6233V40.0668Z" fill="#363636"/>
<path d="M238.272 44.9364H234.586L235.026 44.1837V40.8067L234.586 40.0675H238.132V41.5602H238.043L237.234 40.3227H235.984V42.2922H237.992V42.612H235.984V44.6804H237.301L238.272 43.3791L238.352 43.3934L238.272 44.9364Z" fill="#363636"/>
<path d="M240.425 43.9197L240.491 43.8695L241.219 44.1821C241.288 43.9739 241.343 43.7395 241.386 43.4779C241.427 43.2172 241.458 42.9405 241.481 42.6471C241.504 42.3536 241.517 42.0474 241.524 41.73C241.532 41.4135 241.536 41.0977 241.536 40.7843L240.948 40.0675H245.061L244.515 40.821V44.1829L245.061 44.9364H242.897L243.559 44.1829V40.3872H241.897C241.897 40.833 241.894 41.2612 241.893 41.6734C241.89 42.0849 241.878 42.4676 241.857 42.8177C241.833 43.1686 241.798 43.4812 241.75 43.7555C241.7 44.0305 241.631 44.2586 241.544 44.4381C241.43 44.6653 241.287 44.82 241.112 44.9005C240.938 44.9811 240.749 45.0209 240.543 45.0209L240.425 43.9197Z" fill="#363636"/>
<path d="M248.983 44.6584C249.169 44.6584 249.346 44.6328 249.513 44.5802C249.679 44.5283 249.826 44.4534 249.951 44.3561C250.077 44.2581 250.176 44.1385 250.248 43.9973C250.323 43.8545 250.359 43.6935 250.359 43.5132C250.359 43.286 250.324 43.0938 250.257 42.9375C250.188 42.7813 250.093 42.6553 249.97 42.5572C249.848 42.4599 249.701 42.3906 249.531 42.3483C249.363 42.306 249.18 42.2845 248.983 42.2845H248.755V44.6584H248.983ZM247.798 44.1823V40.8132L247.262 40.0661H249.306L248.755 40.8196V42.007H248.976C249.133 42.007 249.304 42.0126 249.487 42.0245C249.672 42.0357 249.854 42.062 250.035 42.1019C250.216 42.1433 250.391 42.1968 250.561 42.2661C250.732 42.3355 250.879 42.4272 251.01 42.5429C251.141 42.6592 251.245 42.8004 251.324 42.9663C251.402 43.1321 251.44 43.3283 251.44 43.5563C251.44 43.8362 251.361 44.0643 251.202 44.2421C251.043 44.4191 250.841 44.561 250.599 44.6639C250.356 44.7684 250.09 44.8393 249.8 44.8777C249.511 44.9159 249.236 44.9343 248.976 44.9343H247.357L247.798 44.1815V44.1823Z" fill="#363636"/>
<path d="M258.508 44.9357H256.463L257.008 44.183V42.5682H254.792V44.183L255.337 44.9357H253.292L253.837 44.183V40.8139L253.3 40.0668H255.345L254.792 40.8203V42.2493H257.008V40.8139L256.469 40.0668H258.516L257.965 40.8203V44.183L258.508 44.9357Z" fill="#363636"/>
<path d="M265.204 44.9364L265.748 44.1837V40.821L265.204 40.0675H267.25L266.704 40.821V44.1837L267.25 44.9364H265.204ZM262.438 44.6597C262.624 44.6597 262.801 44.6342 262.968 44.5816C263.135 44.5297 263.281 44.4548 263.405 44.3575C263.531 44.2594 263.63 44.1398 263.703 43.9987C263.777 43.8559 263.813 43.6949 263.813 43.5146C263.813 43.2874 263.779 43.0952 263.711 42.9389C263.643 42.7826 263.548 42.6566 263.424 42.5585C263.302 42.4613 263.155 42.3919 262.985 42.3496C262.816 42.3074 262.634 42.2859 262.438 42.2859H262.209V44.6597H262.438ZM261.253 44.1837V40.8146L260.717 40.0675H262.762L262.21 40.821V42.0083H262.431C262.588 42.0083 262.758 42.014 262.942 42.0259C263.126 42.037 263.309 42.0634 263.49 42.1033C263.671 42.1447 263.847 42.1981 264.016 42.2675C264.185 42.3369 264.334 42.4286 264.464 42.5442C264.595 42.6606 264.698 42.8017 264.778 42.9676C264.856 43.1335 264.895 43.3297 264.895 43.5577C264.895 43.8376 264.816 44.0656 264.657 44.2434C264.498 44.4205 264.295 44.5624 264.052 44.6653C263.81 44.7697 263.544 44.8407 263.255 44.879C262.966 44.9172 262.691 44.9356 262.431 44.9356H260.812L261.253 44.1829V44.1837Z" fill="#363636"/>
<path d="M272.156 39.7112C271.695 39.7112 271.34 39.6243 271.093 39.4512C270.845 39.279 270.721 39.0214 270.721 38.6801H271.567C271.567 38.9321 271.618 39.1211 271.721 39.2495C271.825 39.377 271.969 39.4408 272.156 39.4408C272.343 39.4408 272.486 39.377 272.59 39.2495C272.693 39.1211 272.745 38.9321 272.745 38.6801H273.59C273.59 39.0214 273.468 39.279 273.22 39.4512C272.972 39.6243 272.617 39.7112 272.156 39.7112ZM269.993 44.1822V40.8139L269.455 40.0668H271.502L270.949 40.8203V44.0833L273.326 40.0668H274.725L274.173 40.8203V44.183L274.718 44.9365H272.671L273.217 44.183V40.9208L270.84 44.9365H269.451L269.995 44.183L269.993 44.1822Z" fill="#363636"/>
<path d="M165.274 54.916C165.382 54.9686 165.507 54.9941 165.65 54.9941C165.9 54.9941 166.099 54.9328 166.244 54.8084C166.393 54.6864 166.507 54.5404 166.587 54.3714C166.669 54.2039 166.721 54.0325 166.745 53.8594C166.77 53.6872 166.782 53.5525 166.782 53.4584C166.782 52.9472 166.663 52.5589 166.423 52.2965C166.182 52.0334 165.799 51.9026 165.274 51.9026V54.916ZM164.348 51.9656C164.24 51.913 164.115 51.8867 163.972 51.8867C163.722 51.8867 163.523 51.9497 163.378 52.0724C163.229 52.1953 163.116 52.3412 163.035 52.5103C162.954 52.6777 162.901 52.8483 162.877 53.0222C162.852 53.1944 162.84 53.3284 162.84 53.4224C162.84 53.9344 162.96 54.3227 163.2 54.5851C163.44 54.8482 163.823 54.979 164.348 54.979V51.9656ZM164.348 55.3354V55.2493C164.294 55.2589 164.235 55.266 164.171 55.2708C164.108 55.2756 164.041 55.278 163.972 55.278C163.634 55.278 163.33 55.2238 163.06 55.1177C162.79 55.0109 162.562 54.8729 162.376 54.7055C162.19 54.5365 162.046 54.3475 161.946 54.137C161.845 53.9264 161.796 53.7135 161.796 53.5006C161.796 53.2398 161.844 52.9935 161.942 52.7614C162.04 52.5286 162.186 52.3252 162.381 52.1514C162.574 51.976 162.818 51.8373 163.111 51.7352C163.407 51.6323 163.749 51.5829 164.142 51.5829H164.248C164.281 51.5829 164.313 51.5845 164.348 51.5885V51.5454L163.804 50.7918H165.819L165.274 51.5454V51.6315C165.328 51.622 165.387 51.6148 165.452 51.6092C165.515 51.6052 165.582 51.602 165.65 51.602C165.988 51.602 166.293 51.6563 166.562 51.7623C166.832 51.8683 167.06 52.0071 167.247 52.1738C167.433 52.3428 167.576 52.5326 167.678 52.7431C167.778 52.9536 167.828 53.1657 167.828 53.3794C167.828 53.6401 167.78 53.8866 167.684 54.1186C167.589 54.3506 167.442 54.554 167.247 54.7286C167.05 54.9048 166.805 55.0436 166.511 55.144C166.216 55.2469 165.873 55.298 165.48 55.298H165.374C165.341 55.298 165.31 55.2956 165.274 55.2908V55.3338L165.819 56.0866H163.804L164.348 55.3338V55.3354Z" fill="#363636"/>
<path d="M172.221 51.2201C171.972 51.2201 171.77 51.2759 171.618 51.3875C171.466 51.4976 171.348 51.6347 171.264 51.7958C171.182 51.9569 171.125 52.1283 171.096 52.3077C171.066 52.4887 171.052 52.649 171.052 52.7918C171.052 53.1561 171.088 53.5118 171.163 53.8578C171.235 54.2039 171.344 54.5101 171.486 54.7781C171.628 55.0452 171.802 55.2597 172.009 55.4207C172.214 55.5818 172.448 55.6624 172.707 55.6624C172.929 55.6624 173.115 55.6073 173.266 55.4949C173.418 55.3833 173.54 55.2462 173.63 55.0834C173.721 54.9192 173.787 54.7478 173.829 54.5676C173.87 54.3881 173.892 54.227 173.892 54.0852C173.892 53.7199 173.854 53.3651 173.779 53.019C173.702 52.6729 173.593 52.3675 173.45 52.1012C173.308 51.8364 173.133 51.6235 172.924 51.4617C172.716 51.3006 172.482 51.2201 172.223 51.2201H172.221ZM174.921 53.2247C174.921 53.5795 174.862 53.9232 174.745 54.2557C174.627 54.5867 174.454 54.8777 174.227 55.1289C173.997 55.3801 173.714 55.5818 173.373 55.7333C173.032 55.884 172.636 55.9606 172.184 55.9606C171.845 55.9606 171.542 55.8944 171.273 55.762C171.002 55.6297 170.773 55.4551 170.587 55.2398C170.401 55.0237 170.258 54.7781 170.158 54.5013C170.057 54.2231 170.007 53.9408 170.007 53.6506C170.007 53.2957 170.067 52.9528 170.183 52.6203C170.301 52.2886 170.475 51.9975 170.702 51.7464C170.932 51.496 171.216 51.2942 171.56 51.1427C171.903 50.9912 172.299 50.9155 172.745 50.9155C173.084 50.9155 173.387 50.9816 173.656 51.1132C173.927 51.2472 174.156 51.421 174.342 51.6363C174.528 51.8524 174.672 52.098 174.771 52.3755C174.872 52.6522 174.921 52.936 174.921 53.2255L174.921 53.2247Z" fill="#363636"/>
<path d="M182.139 55.8759H180.095L180.639 55.1232V53.5092H178.424V55.1232L178.969 55.8759H176.923L177.468 55.1232V51.7541L176.929 51.0078H178.977L178.424 51.7605V53.1903H180.639V51.7541L180.102 51.0078H182.147L181.595 51.7605V55.1232L182.139 55.8759Z" fill="#363636"/>
<path d="M187.465 55.5556V51.3261H185.803C185.803 51.9187 185.792 52.445 185.773 52.9042C185.753 53.3635 185.721 53.7662 185.676 54.1091C185.632 54.4528 185.578 54.7422 185.514 54.9799C185.451 55.2175 185.375 55.4081 185.287 55.5556H187.465ZM184.228 57.1759V55.5556H184.942C185.129 55.243 185.258 54.7638 185.331 54.1203C185.406 53.4752 185.442 52.677 185.442 51.7249L184.854 51.0064H188.966L188.422 51.76V55.5556H189.157V57.1759L189.098 57.1831L188.156 55.8761H185.229L184.286 57.1831L184.227 57.1759H184.228Z" fill="#363636"/>
<path d="M10.0589 23.1763H5.81801C5.7515 23.1763 5.70662 23.1341 5.7515 23.0288L7.70526 17.3457C7.74936 17.199 7.81663 17.1145 7.86072 17.1145C7.92722 17.1145 7.97131 17.1775 8.03943 17.3457L10.1487 23.0288C10.1711 23.1133 10.1711 23.1763 10.0589 23.1763ZM16.6991 29.8482C16.4771 29.8482 16.1438 29.8275 15.8112 29.7222C15.3448 29.5954 14.7013 29.2589 13.9007 27.3858C12.5464 24.1867 9.0596 15.4941 8.72698 14.6944C8.46094 14.0429 8.37119 13.9369 8.23814 13.9369C8.10515 13.9369 8.01618 14.0629 7.75013 14.7574L2.70946 27.8276C2.30957 28.8809 1.86561 29.6807 0.843854 29.8067C0.666747 29.8283 0.355812 29.849 0.200345 29.849C0.0897544 29.849 0 29.8913 0 29.9758C0 30.1018 0.133029 30.144 0.423128 30.144C1.46652 30.144 2.68783 30.081 2.93224 30.081C3.17586 30.081 4.1303 30.144 4.66322 30.144C4.86276 30.144 4.9974 30.1018 4.9974 29.9758C4.9974 29.8913 4.93088 29.849 4.77461 29.849H4.55263C4.17518 29.849 3.70878 29.66 3.70878 29.2382C3.70878 28.8594 3.81937 28.3546 4.01972 27.8276L5.35241 24.1029C5.39568 23.9977 5.463 23.9339 5.57359 23.9339H10.3482C10.4596 23.9339 10.5044 23.9761 10.5485 24.0607L12.6137 29.2374C12.6578 29.3219 12.6578 29.4479 12.6578 29.5109C12.6578 29.6999 12.5247 29.8059 12.4798 29.8059C12.4133 29.8059 12.3252 29.8689 12.3252 29.9534C12.3252 30.0803 12.5688 30.0803 12.9903 30.1009C14.5234 30.1432 16.1438 30.1432 16.4771 30.1432C16.7215 30.1432 16.9211 30.1009 16.9211 29.975C16.9211 29.8697 16.8321 29.8482 16.6991 29.8482Z" fill="#363636"/>
<path d="M32.8905 14.9458C31.8687 14.9458 30.581 15.0088 30.0921 15.0088C29.915 15.0088 28.5823 14.9458 27.583 14.9458C27.3393 14.9458 27.2288 14.9882 27.2288 15.1149C27.2288 15.1987 27.3169 15.2409 27.4058 15.2409C27.6046 15.2409 27.9829 15.2624 28.1607 15.3039C28.8932 15.4514 29.0712 15.7879 29.1152 16.5032C29.1593 17.1762 29.1593 17.7663 29.1593 21.0499V24.7539C29.1593 26.7745 29.1593 28.4371 29.0487 29.3214C28.9597 29.9314 28.8491 30.3947 28.4052 30.4792C28.2057 30.5215 27.9388 30.5638 27.7385 30.5638C27.6054 30.5638 27.5613 30.6268 27.5613 30.6897C27.5613 30.8157 27.6727 30.8572 27.9163 30.8572C28.5831 30.8572 29.9823 30.7942 30.0488 30.7942C30.1594 30.7942 31.5586 30.8572 32.7807 30.8572C33.0251 30.8572 33.1357 30.7942 33.1357 30.6897C33.1357 30.6259 33.0916 30.5638 32.957 30.5638C32.7583 30.5638 32.2686 30.5215 31.9577 30.4792C31.2918 30.3947 31.1587 29.9322 31.0922 29.3214C30.9808 28.4379 30.9808 26.7745 30.9808 24.7539V16.1037C30.9808 15.8932 31.0249 15.7456 31.1579 15.7042C31.3583 15.6205 31.7349 15.5774 32.1124 15.5774C32.6236 15.5774 33.978 15.4937 35.1552 16.6308C36.3324 17.7671 36.3982 19.1777 36.3982 19.8706C36.3982 21.8075 34.7104 23.3026 32.5563 23.3026C32.0907 23.3026 31.9569 23.3234 31.9569 23.4916C31.9569 23.5969 32.0907 23.6391 32.2021 23.6391C32.3127 23.6599 32.5563 23.6599 32.6685 23.6599C35.8211 23.6599 38.1315 21.6392 38.1315 18.6506C38.1315 17.5358 37.5096 16.5877 37.0216 16.1459C36.6658 15.8302 35.6664 14.9467 32.8913 14.9467L32.8905 14.9458Z" fill="#363636"/>
<path d="M65.2214 29.8477C65.0883 29.8477 64.7558 29.8055 64.444 29.7217C63.7997 29.5327 63.4896 29.2162 63.1338 28.7736C62.6673 28.2059 58.8705 22.081 58.4481 21.4287L62.0239 16.3358C62.6673 15.4307 63.0905 14.8199 63.7332 14.6301C63.9776 14.5472 64.311 14.5257 64.4656 14.5257C64.6211 14.5257 64.7101 14.4619 64.7101 14.3781C64.7101 14.2936 64.5987 14.2298 64.3559 14.2298C63.6002 14.2298 62.6898 14.2928 62.4902 14.2928C62.2907 14.2928 61.3579 14.2298 60.5141 14.2298C60.248 14.2298 60.1358 14.2928 60.1358 14.3781C60.1358 14.4834 60.2023 14.5257 60.3354 14.5257C60.4692 14.5257 60.7801 14.5257 61.0013 14.5887C61.2241 14.6517 61.3796 14.8207 61.3796 14.9674C61.3796 15.2202 61.3122 15.41 61.1568 15.725C60.9356 16.1667 58.5587 19.7653 57.8928 20.6712C56.7371 18.8619 55.8276 17.3038 54.8948 15.6404C54.7617 15.41 54.6728 15.1564 54.6728 14.9467C54.6728 14.7984 54.7393 14.6517 54.9389 14.5879C55.1176 14.5249 55.406 14.5249 55.5383 14.5249C55.6721 14.5249 55.7378 14.4826 55.7378 14.3774C55.7378 14.2721 55.6722 14.229 55.3604 14.229C54.6055 14.229 53.4731 14.292 53.2728 14.292C53.0957 14.292 51.2958 14.229 50.6747 14.229C50.387 14.229 50.2981 14.2721 50.2981 14.3774C50.2981 14.461 50.3638 14.5249 50.4969 14.5249C50.6298 14.5249 51.0746 14.5671 51.4296 14.6724C52.1837 14.9252 52.651 15.5344 53.1614 16.3557L56.714 22.0172L52.695 28.0368C51.9618 29.1109 51.5178 29.5742 50.851 29.7416C50.5176 29.8261 50.1851 29.8469 50.0072 29.8469C49.8958 29.8469 49.8301 29.9099 49.8301 29.9944C49.8301 30.0781 49.8742 30.1419 50.052 30.1419C50.7845 30.1419 51.8728 30.0781 52.0724 30.0781C52.2727 30.0781 53.6719 30.1419 54.2048 30.1419C54.3603 30.1419 54.4709 30.0997 54.4709 29.9944C54.4709 29.9107 54.4043 29.8469 54.2937 29.8469C54.1824 29.8469 54.0053 29.8261 53.8706 29.8046C53.6719 29.7624 53.5164 29.6156 53.5164 29.4043C53.5164 29.1938 53.6054 28.8151 53.8049 28.4785L57.2684 22.9007C58.6012 25.0266 59.889 27.1103 61.0886 29.1723C61.2874 29.5088 61.0886 29.7201 60.9764 29.7624C60.8875 29.7839 60.8434 29.8469 60.8434 29.9306C60.8434 30.0359 60.954 30.0574 61.5318 30.0997C62.6649 30.1212 63.7308 30.1419 65.0851 30.1419C65.2846 30.1419 65.3961 30.0781 65.3961 29.9737C65.3961 29.8891 65.3303 29.8469 65.219 29.8469L65.2214 29.8477Z" fill="#363636"/>
<path d="M94.469 29.8469C94.269 29.8469 93.7807 29.8046 93.4698 29.7624C92.8042 29.6779 92.6713 29.2153 92.6042 28.6045C92.4933 27.7211 92.4933 26.0568 92.4933 24.037V20.3331V14.524C92.6042 13.8295 92.2488 13.745 91.9605 14.1867C87.4076 19.7646 84.2991 23.2795 81.1462 26.7521C81.0564 26.8574 80.9462 26.8367 80.9462 26.6685C80.9462 19.7223 80.9462 16.4602 80.9907 15.7871C81.0345 15.0503 81.2119 14.6923 81.8118 14.587C82.0775 14.5455 82.2125 14.524 82.3672 14.524C82.4555 14.524 82.5453 14.4818 82.5453 14.3973C82.5453 14.2713 82.435 14.2282 82.1898 14.2282C81.5235 14.2282 80.1244 14.2912 80.0141 14.2912C79.9018 14.2912 78.5041 14.2282 77.5042 14.2282C77.2604 14.2282 77.1501 14.2713 77.1501 14.3973C77.1501 14.4818 77.2378 14.524 77.3275 14.524C77.5268 14.524 77.9041 14.5455 78.0822 14.587C78.815 14.7345 78.993 15.0718 79.0361 15.7871C79.0821 16.4602 79.0361 17.0502 79.0821 20.3331V30.0144C78.9704 30.7089 79.3266 30.7926 79.6149 30.3508L79.882 30.0144L81.7242 27.7625C84.4779 24.3528 87.3878 21.0484 90.3182 17.8069C90.5182 17.5757 90.6292 17.7017 90.6292 17.9553V24.037C90.6292 26.0568 90.6292 27.7202 90.5182 28.6045C90.4285 29.2146 90.3182 29.6779 89.8745 29.7624C89.6745 29.8046 89.4081 29.8469 89.2081 29.8469C89.0753 29.8469 89.0301 29.9099 89.0301 29.9737C89.0301 30.0997 89.141 30.1419 89.3855 30.1419C90.0511 30.1419 91.4503 30.0781 91.5612 30.0781C91.6736 30.0781 93.072 30.1419 94.2931 30.1419C94.5368 30.1419 94.6478 30.0781 94.6478 29.9737C94.6478 29.9107 94.604 29.8469 94.4711 29.8469H94.469Z" fill="#363636"/>
<path d="M122.561 26.3319C122.428 26.3319 122.383 26.4164 122.339 26.6477C122.273 27.0264 121.984 27.9529 121.517 28.4155C120.63 29.2783 119.319 29.4673 117.654 29.4673C112.902 29.4673 109.637 25.7849 109.637 21.7643C109.637 18.0397 111.036 14.7345 116.744 14.7345C119.518 14.7345 122.117 15.6188 122.117 18.0811C122.117 18.3754 122.139 18.5229 122.296 18.5229C122.472 18.5229 122.516 18.2071 122.516 17.1977C122.516 15.9768 122.673 14.9665 122.673 14.7345C122.673 14.6085 122.628 14.5032 122.384 14.5032C121.54 14.5032 119.542 13.9354 116.9 13.9354C109.838 13.9354 107.639 18.5652 107.639 21.9326C107.639 26.7943 110.881 30.4353 117.654 30.4353C119.076 30.4353 120.764 30.2877 121.651 29.9512C122.052 29.783 122.096 29.7408 122.228 29.3413C122.451 28.626 122.717 26.7943 122.717 26.6477C122.717 26.4786 122.674 26.3319 122.562 26.3319H122.561Z" fill="#363636"/>
<path d="M166.664 14.2304C165.642 14.2304 164.355 14.2934 163.866 14.2934C163.688 14.2934 162.356 14.2304 161.356 14.2304C161.111 14.2304 161.002 14.2727 161.002 14.3994C161.002 14.4832 161.09 14.5254 161.18 14.5254C161.379 14.5254 161.756 14.547 161.934 14.5884C162.667 14.736 162.845 15.0732 162.888 15.7877C162.934 16.4615 162.934 17.0508 162.934 20.3345V24.0376C162.934 26.0582 162.934 27.7208 162.822 28.6059C162.732 29.216 162.623 29.6793 162.179 29.7629C161.979 29.8052 161.713 29.8474 161.512 29.8474C161.379 29.8474 161.334 29.9104 161.334 29.9734C161.334 30.1002 161.445 30.1409 161.69 30.1409C162.356 30.1409 163.754 30.0779 163.822 30.0779C163.934 30.0779 165.331 30.1409 166.554 30.1409C166.798 30.1409 166.908 30.0779 166.908 29.9734C166.908 29.9097 166.865 29.8474 166.73 29.8474C166.531 29.8474 166.042 29.8052 165.731 29.7629C165.065 29.6793 164.932 29.216 164.864 28.6059C164.754 27.7216 164.754 26.0582 164.754 24.0376V15.3874C164.754 15.1777 164.798 15.0294 164.932 14.9879C165.132 14.9042 165.509 14.8611 165.886 14.8611C166.398 14.8611 167.752 14.7774 168.93 15.9145C170.106 17.0508 170.173 18.4614 170.173 19.1559C170.173 21.092 168.485 22.5863 166.332 22.5863C165.866 22.5863 165.731 22.6071 165.731 22.7753C165.731 22.8806 165.865 22.9229 165.976 22.9229C166.088 22.9444 166.332 22.9444 166.443 22.9444C169.596 22.9444 171.905 20.9237 171.905 17.9343C171.905 16.8195 171.283 15.8714 170.795 15.4297C170.44 15.1147 169.441 14.2304 166.666 14.2304H166.664Z" fill="#363636"/>
<path d="M192.468 23.1749H188.227C188.161 23.1749 188.116 23.1327 188.161 23.0274L190.115 17.3443C190.158 17.1977 190.225 17.1131 190.27 17.1131C190.336 17.1131 190.382 17.1761 190.449 17.3443L192.557 23.0274C192.579 23.1119 192.579 23.1749 192.468 23.1749ZM199.109 29.8468C198.886 29.8468 198.554 29.8261 198.22 29.7208C197.754 29.594 197.11 29.2575 196.31 27.3844C194.956 24.1852 191.469 15.4928 191.136 14.693C190.871 14.0415 190.781 13.9354 190.648 13.9354C190.515 13.9354 190.426 14.0614 190.16 14.756L185.119 27.8262C184.719 28.8795 184.276 29.6793 183.255 29.8053C183.077 29.8268 182.766 29.8476 182.611 29.8476C182.501 29.8476 182.411 29.8898 182.411 29.9744C182.411 30.1004 182.544 30.1426 182.833 30.1426C183.876 30.1426 185.098 30.0796 185.342 30.0796C185.587 30.0796 186.541 30.1426 187.074 30.1426C187.273 30.1426 187.407 30.1004 187.407 29.9744C187.407 29.8898 187.342 29.8476 187.186 29.8476H186.964C186.586 29.8476 186.119 29.6586 186.119 29.2368C186.119 28.858 186.23 28.3533 186.43 27.8262L187.763 24.1015C187.807 23.9962 187.874 23.9325 187.984 23.9325H192.76C192.87 23.9325 192.915 23.9747 192.96 24.0592L195.024 29.236C195.069 29.3205 195.069 29.4465 195.069 29.5095C195.069 29.6985 194.935 29.8046 194.891 29.8046C194.825 29.8046 194.736 29.8676 194.736 29.9521C194.736 30.0788 194.981 30.0788 195.402 30.0996C196.934 30.1418 198.556 30.1418 198.889 30.1418C199.133 30.1418 199.332 30.0996 199.332 29.9736C199.332 29.8683 199.244 29.8468 199.111 29.8468H199.109Z" fill="#363636"/>
<path d="M222.849 14.083C222.671 14.083 222.071 14.2935 220.65 14.2935H212.323C212.056 14.2935 211.212 14.2512 210.567 14.1882C209.968 14.1452 209.747 13.9354 209.591 13.9354C209.502 13.9354 209.413 14.209 209.37 14.335C209.325 14.504 208.881 16.3133 208.881 16.5239C208.881 16.6506 208.926 16.7128 208.991 16.7128C209.081 16.7128 209.147 16.6705 209.213 16.5031C209.281 16.3548 209.348 16.2081 209.591 15.8508C209.946 15.3453 210.48 15.1985 211.856 15.177L215.144 15.1348V24.0377C215.144 26.0584 215.143 27.7209 215.031 28.6052C214.942 29.216 214.833 29.6793 214.387 29.7631C214.189 29.8053 213.921 29.8468 213.722 29.8468C213.588 29.8468 213.544 29.9098 213.544 29.9736C213.544 30.1004 213.654 30.1411 213.898 30.1411C214.565 30.1411 215.964 30.0781 216.076 30.0781C216.186 30.0781 217.586 30.1411 218.806 30.1411C219.051 30.1411 219.162 30.0781 219.162 29.9736C219.162 29.9098 219.117 29.8468 218.983 29.8468C218.784 29.8468 218.296 29.8046 217.984 29.7631C217.318 29.6793 217.186 29.216 217.119 28.6052C217.008 27.7218 217.008 26.0584 217.008 24.0377V15.1348L219.807 15.177C221.939 15.2193 222.449 15.7033 222.538 16.3349L222.559 16.5669C222.582 16.8611 222.625 16.9241 222.738 16.9241C222.826 16.9241 222.893 16.8404 222.893 16.6514C222.893 16.4194 222.959 14.9673 222.959 14.3357C222.959 14.209 222.959 14.083 222.849 14.083Z" fill="#363636"/>
<path d="M252.784 29.8469C252.583 29.8469 252.095 29.8046 251.784 29.7624C251.119 29.6779 250.986 29.2153 250.918 28.6045C250.808 27.7211 250.808 26.0568 250.808 24.037V20.3331V14.524C250.918 13.8295 250.563 13.745 250.274 14.1867C245.722 19.7646 242.613 23.2795 239.459 26.7521C239.37 26.8574 239.26 26.8367 239.26 26.6685C239.26 19.7223 239.26 16.4602 239.304 15.7871C239.348 15.0503 239.526 14.6923 240.126 14.587C240.391 14.5455 240.526 14.524 240.681 14.524C240.77 14.524 240.859 14.4818 240.859 14.3973C240.859 14.2713 240.748 14.2282 240.504 14.2282C239.837 14.2282 238.438 14.2912 238.328 14.2912C238.216 14.2912 236.817 14.2282 235.819 14.2282C235.574 14.2282 235.465 14.2713 235.465 14.3973C235.465 14.4818 235.553 14.524 235.643 14.524C235.841 14.524 236.219 14.5455 236.397 14.587C237.13 14.7345 237.308 15.0718 237.351 15.7871C237.395 16.4602 237.351 17.0502 237.395 20.3331V30.0144C237.284 30.7089 237.64 30.7926 237.929 30.3508L238.195 30.0144L240.038 27.7625C242.791 24.3528 245.702 21.0484 248.632 17.8069C248.832 17.5757 248.943 17.7017 248.943 17.9553V24.037C248.943 26.0568 248.943 27.7202 248.832 28.6045C248.744 29.2146 248.633 29.6779 248.188 29.7624C247.988 29.8046 247.722 29.8469 247.522 29.8469C247.389 29.8469 247.343 29.9099 247.343 29.9737C247.343 30.0997 247.456 30.1419 247.699 30.1419C248.365 30.1419 249.764 30.0781 249.875 30.0781C249.988 30.0781 251.385 30.1419 252.607 30.1419C252.852 30.1419 252.962 30.0781 252.962 29.9737C252.962 29.9107 252.918 29.8469 252.785 29.8469H252.784Z" fill="#363636"/>
<path d="M276.168 14.0408C276.08 14.0408 275.99 14.1246 275.857 14.1668C275.769 14.1884 275.235 14.2298 274.88 14.2514C274.569 14.2721 269.862 14.2936 269.417 14.2936C269.306 14.2936 267.907 14.2298 266.908 14.2298C266.663 14.2298 266.554 14.2721 266.554 14.3989C266.554 14.4826 266.642 14.5249 266.731 14.5249C266.93 14.5249 267.308 14.5464 267.486 14.5887C268.218 14.7362 268.351 15.052 268.419 15.5567C268.462 15.914 268.485 16.7983 268.485 20.334V24.0379C268.485 26.6055 268.441 28.3103 268.329 28.8582C268.197 29.4682 268.085 29.6572 267.731 29.7624C267.53 29.8254 267.264 29.8462 267.063 29.8462C266.931 29.8462 266.887 29.91 266.887 29.973C266.887 30.0997 266.997 30.1404 267.241 30.1404C267.908 30.1404 269.219 30.0774 269.329 30.0774C269.44 30.0774 270.84 30.1404 272.061 30.1404C272.304 30.1404 272.417 30.0774 272.417 29.973C272.417 29.91 272.372 29.8462 272.238 29.8462C272.039 29.8462 271.55 29.8039 271.239 29.7624C270.751 29.6994 270.483 29.4044 270.394 28.8151C270.283 28.1206 270.262 26.0577 270.262 24.0371V15.3024C270.262 15.1349 270.327 15.0711 270.461 15.0711L273.504 15.1349C274.814 15.1349 275.347 15.5559 275.479 15.8295C275.614 16.1037 275.68 16.461 275.68 16.6293C275.68 16.7768 275.723 16.8613 275.835 16.8613C275.946 16.8613 275.99 16.756 276.011 16.6508C276.057 16.398 276.101 15.4714 276.122 15.2617C276.189 14.6716 276.301 14.4188 276.301 14.2721C276.301 14.1668 276.257 14.0408 276.168 14.0408Z" fill="#363636"/>
<path d="M142.865 11.9235V0H142.849H140.823V11.9235H140.84H142.865Z" fill="#363636"/>
<path d="M151.95 15.3673V14.2542V14.2438L131.735 14.2542V15.3458V15.3673H151.95Z" fill="#363636"/>
<path d="M142.822 17.4078L142.28 85.3981C142.28 85.647 142.038 88.7653 141.845 88.7653C141.65 88.7653 141.433 85.647 141.433 85.3981L140.866 17.4078H139.816L140.533 86.3023C140.533 87.3084 140.854 90 141.843 90C142.834 90 143.154 87.3084 143.154 86.3023L143.871 17.4078H142.822H142.822Z" fill="#363636"/>
</g>
<defs>
<clipPath id="clip0_109_8">
<rect width="277" height="90" fill="white"/>
</clipPath>
</defs>
</svg>
